<svg width="24" height="24" viewBox="0 0 24 24" fill="none" xmlns="http://www.w3.org/2000/svg">
<path d="M14.977 20.9936V12.996C14.977 12.7309 14.8718 12.4766 14.6846 12.2891C14.4973 12.1017 14.2433 11.9963 13.9785 11.9963H9.98466C9.71985 11.9963 9.46589 12.1017 9.27864 12.2891C9.09139 12.4766 8.9862 12.7309 8.9862 12.996V20.9936" stroke="#1A237E" stroke-width="1.99938" stroke-linecap="round" stroke-linejoin="round"/>
<path d="M2.9954 9.99689C2.99533 9.70605 3.05864 9.41869 3.1809 9.15487C3.30317 8.89104 3.48145 8.6571 3.70331 8.46936L10.6926 2.47221C11.053 2.16721 11.5097 1.99988 11.9816 1.99988C12.4535 1.99988 12.9102 2.16721 13.2706 2.47221L20.2599 8.46936C20.4817 8.6571 20.66 8.89104 20.7823 9.15487C20.9046 9.41869 20.9679 9.70605 20.9678 9.99689V18.9941C20.9678 19.5244 20.7574 20.0329 20.3829 20.4079C20.0084 20.7829 19.5005 20.9935 18.9709 20.9935H4.99233C4.46271 20.9935 3.95479 20.7829 3.58029 20.4079C3.20579 20.0329 2.9954 19.5244 2.9954 18.9941V9.99689Z" stroke="#1A237E" stroke-width="1.99938" stroke-linecap="round" stroke-linejoin="round"/>
</svg>
