<svg width="20" height="20" viewBox="0 0 20 20" fill="none" xmlns="http://www.w3.org/2000/svg">
<path d="M15.8307 9.16516H4.16596C3.24564 9.16516 2.49957 9.91123 2.49957 10.8316V16.6639C2.49957 17.5842 3.24564 18.3303 4.16596 18.3303H15.8307C16.751 18.3303 17.4971 17.5842 17.4971 16.6639V10.8316C17.4971 9.91123 16.751 9.16516 15.8307 9.16516Z" stroke="#99A1AF" stroke-width="1.66639" stroke-linecap="round" stroke-linejoin="round"/>
<path d="M5.83237 9.16514V5.83236C5.83237 4.72747 6.27128 3.66784 7.05255 2.88657C7.83383 2.1053 8.89346 1.66638 9.99835 1.66638C11.1032 1.66638 12.1629 2.1053 12.9441 2.88657C13.7254 3.66784 14.1643 4.72747 14.1643 5.83236V9.16514" stroke="#99A1AF" stroke-width="1.66639" stroke-linecap="round" stroke-linejoin="round"/>
</svg>
