<svg width="32" height="32" viewBox="0 0 32 32" fill="none" xmlns="http://www.w3.org/2000/svg">
<path d="M7.99609 29.3191V5.33077C7.99609 4.62387 8.27691 3.94593 8.77676 3.44607C9.27662 2.94622 9.95456 2.66541 10.6615 2.66541H21.3229C22.0298 2.66541 22.7078 2.94622 23.2076 3.44607C23.7075 3.94593 23.9883 4.62387 23.9883 5.33077V29.3191H7.99609Z" stroke="white" stroke-width="2.66537" stroke-linecap="round" stroke-linejoin="round"/>
<path d="M7.99611 15.9922H5.33074C4.62384 15.9922 3.9459 16.273 3.44604 16.7729C2.94619 17.2727 2.66537 17.9507 2.66537 18.6576V26.6537C2.66537 27.3606 2.94619 28.0385 3.44604 28.5384C3.9459 29.0382 4.62384 29.319 5.33074 29.319H7.99611" stroke="white" stroke-width="2.66537" stroke-linecap="round" stroke-linejoin="round"/>
<path d="M23.9883 11.9941H26.6537C27.3606 11.9941 28.0385 12.275 28.5384 12.7748C29.0382 13.2747 29.3191 13.9526 29.3191 14.6595V26.6537C29.3191 27.3606 29.0382 28.0385 28.5384 28.5384C28.0385 29.0382 27.3606 29.319 26.6537 29.319H23.9883" stroke="white" stroke-width="2.66537" stroke-linecap="round" stroke-linejoin="round"/>
<path d="M13.3268 7.99609H18.6576" stroke="white" stroke-width="2.66537" stroke-linecap="round" stroke-linejoin="round"/>
<path d="M13.3268 13.3269H18.6576" stroke="white" stroke-width="2.66537" stroke-linecap="round" stroke-linejoin="round"/>
<path d="M13.3268 18.6576H18.6576" stroke="white" stroke-width="2.66537" stroke-linecap="round" stroke-linejoin="round"/>
<path d="M13.3268 23.9883H18.6576" stroke="white" stroke-width="2.66537" stroke-linecap="round" stroke-linejoin="round"/>
</svg>
