<svg width="40" height="40" viewBox="0 0 40 40" fill="none" xmlns="http://www.w3.org/2000/svg">
<path d="M18.2566 28.9854C18.4321 29.2893 18.6845 29.5416 18.9884 29.7171C19.2924 29.8926 19.6371 29.985 19.9881 29.985C20.339 29.985 20.6838 29.8926 20.9877 29.7171C21.2917 29.5416 21.5441 29.2893 21.7196 28.9854" stroke="#1A237E" stroke-width="1.99938" stroke-linecap="round" stroke-linejoin="round"/>
<path d="M11.2528 23.3131C11.1222 23.4562 11.036 23.6342 11.0047 23.8255C10.9734 24.0167 10.9984 24.2129 11.0766 24.3902C11.1547 24.5675 11.2827 24.7182 11.445 24.8241C11.6073 24.93 11.7968 24.9864 11.9906 24.9866H27.9856C28.1794 24.9867 28.369 24.9304 28.5313 24.8247C28.6937 24.7191 28.8219 24.5685 28.9002 24.3913C28.9786 24.2141 29.0038 24.018 28.9728 23.8267C28.9417 23.6355 28.8558 23.4574 28.7254 23.3141C27.3958 21.9435 25.9863 20.487 25.9863 15.9894C25.9863 14.3986 25.3543 12.8729 24.2294 11.748C23.1046 10.6232 21.5789 9.99121 19.9881 9.99121C18.3973 9.99121 16.8716 10.6232 15.7468 11.748C14.6219 12.8729 13.99 14.3986 13.99 15.9894C13.99 20.487 12.5794 21.9435 11.2528 23.3131Z" stroke="#1A237E" stroke-width="1.99938" stroke-linecap="round" stroke-linejoin="round"/>
<mask id="path-4-inside-1_5_11" fill="white">
<path d="M21.9861 12.991C21.9861 10.23 24.2243 7.99182 26.9852 7.99182C29.7462 7.99182 31.9844 10.23 31.9844 12.991C31.9844 15.752 29.7462 17.9902 26.9852 17.9902C24.2243 17.9902 21.9861 15.752 21.9861 12.991Z"/>
</mask>
<path d="M21.9861 12.991C21.9861 10.23 24.2243 7.99182 26.9852 7.99182C29.7462 7.99182 31.9844 10.23 31.9844 12.991C31.9844 15.752 29.7462 17.9902 26.9852 17.9902C24.2243 17.9902 21.9861 15.752 21.9861 12.991Z" fill="#2962FF"/>
<path d="M21.9861 12.991M31.9844 12.991M31.9844 12.991M21.9861 12.991M26.9852 7.99182M31.9844 12.991M26.9852 17.9902M21.9861 12.991M26.9852 17.9902V16.8926C24.8304 16.8926 23.0836 15.1458 23.0836 12.991H21.9861H20.8885C20.8885 16.3581 23.6181 19.0878 26.9852 19.0878V17.9902ZM31.9844 12.991H30.8868C30.8868 15.1458 29.14 16.8926 26.9852 16.8926V17.9902V19.0878C30.3524 19.0878 33.082 16.3581 33.082 12.991H31.9844ZM26.9852 7.99182V9.08941C29.14 9.08941 30.8868 10.8362 30.8868 12.991H31.9844H33.082C33.082 9.62385 30.3524 6.89423 26.9852 6.89423V7.99182ZM26.9852 7.99182V6.89423C23.6181 6.89423 20.8885 9.62385 20.8885 12.991H21.9861H23.0836C23.0836 10.8362 24.8304 9.08941 26.9852 9.08941V7.99182Z" fill="white" mask="url(#path-4-inside-1_5_11)"/>
</svg>
