<svg width="20" height="20" viewBox="0 0 20 20" fill="none" xmlns="http://www.w3.org/2000/svg">
<g clip-path="url(#clip0_1_288)">
<path d="M18.3303 14.0976V16.5972C18.3312 16.8293 18.2837 17.0589 18.1907 17.2716C18.0978 17.4842 17.9614 17.675 17.7904 17.8319C17.6194 17.9888 17.4176 18.1082 17.1978 18.1825C16.9779 18.2569 16.745 18.2845 16.5139 18.2636C13.95 17.985 11.4872 17.1089 9.32343 15.7057C7.31029 14.4265 5.60349 12.7197 4.32426 10.7065C2.91614 8.53288 2.03984 6.05811 1.76635 3.48271C1.74552 3.2523 1.77291 3.02008 1.84675 2.80084C1.92059 2.5816 2.03928 2.38013 2.19525 2.20927C2.35122 2.03841 2.54105 1.90189 2.75268 1.80842C2.9643 1.71494 3.19306 1.66656 3.42441 1.66634H5.92399C6.32835 1.66236 6.72035 1.80555 7.02695 2.06922C7.33354 2.33289 7.53379 2.69904 7.59038 3.09944C7.69589 3.89936 7.89154 4.68478 8.17362 5.44072C8.28572 5.73894 8.30998 6.06304 8.24353 6.37463C8.17708 6.68622 8.0227 6.97222 7.79868 7.19876L6.74053 8.25692C7.92663 10.3429 9.65376 12.07 11.7397 13.2561L12.7979 12.1979C13.0244 11.9739 13.3104 11.8195 13.622 11.7531C13.9336 11.6866 14.2577 11.7109 14.5559 11.823C15.3118 12.1051 16.0973 12.3007 16.8972 12.4062C17.3019 12.4633 17.6716 12.6672 17.9358 12.9791C18.2 13.2909 18.3404 13.689 18.3303 14.0976Z" stroke="#00BFA5" stroke-width="1.66639" stroke-linecap="round" stroke-linejoin="round"/>
</g>
<defs>
<clipPath id="clip0_1_288">
<rect width="19.9967" height="19.9967" fill="white"/>
</clipPath>
</defs>
</svg>
